<mxfile host="app.diagrams.net" modified="2022-03-24T10:16:32.119Z" agent="5.0 (Windows NT 10.0; Win64; x64) AppleWebKit/537.36 (KHTML, like Gecko) Chrome/99.0.4844.82 Safari/537.36" etag="qvaTasxtugaltW1IKWTA" version="17.2.1" type="github">
  <diagram id="TfJUvM1GGJxf5kgtmCj6" name="Page-1">
    <mxGraphModel dx="1950" dy="1860" grid="1" gridSize="10" guides="1" tooltips="1" connect="1" arrows="1" fold="1" page="1" pageScale="1" pageWidth="827" pageHeight="1169" math="0" shadow="0">
      <root>
        <mxCell id="0" />
        <mxCell id="1" parent="0" />
        <mxCell id="Z-sHhtnvJCwgNHKxv5Uj-3" value="" style="edgeStyle=orthogonalEdgeStyle;rounded=0;orthogonalLoop=1;jettySize=auto;html=1;" edge="1" parent="1" source="Z-sHhtnvJCwgNHKxv5Uj-1" target="Z-sHhtnvJCwgNHKxv5Uj-2">
          <mxGeometry relative="1" as="geometry" />
        </mxCell>
        <mxCell id="Z-sHhtnvJCwgNHKxv5Uj-1" value="Начало" style="rounded=1;whiteSpace=wrap;html=1;" vertex="1" parent="1">
          <mxGeometry x="220" y="60" width="120" height="60" as="geometry" />
        </mxCell>
        <mxCell id="Z-sHhtnvJCwgNHKxv5Uj-5" value="" style="edgeStyle=orthogonalEdgeStyle;rounded=0;orthogonalLoop=1;jettySize=auto;html=1;" edge="1" parent="1" source="Z-sHhtnvJCwgNHKxv5Uj-2" target="Z-sHhtnvJCwgNHKxv5Uj-4">
          <mxGeometry relative="1" as="geometry" />
        </mxCell>
        <mxCell id="Z-sHhtnvJCwgNHKxv5Uj-2" value="Авторизация" style="rounded=0;whiteSpace=wrap;html=1;" vertex="1" parent="1">
          <mxGeometry x="220" y="180" width="120" height="60" as="geometry" />
        </mxCell>
        <mxCell id="Z-sHhtnvJCwgNHKxv5Uj-6" style="edgeStyle=orthogonalEdgeStyle;rounded=0;orthogonalLoop=1;jettySize=auto;html=1;entryX=1;entryY=0.5;entryDx=0;entryDy=0;" edge="1" parent="1" source="Z-sHhtnvJCwgNHKxv5Uj-4" target="Z-sHhtnvJCwgNHKxv5Uj-1">
          <mxGeometry relative="1" as="geometry">
            <Array as="points">
              <mxPoint x="410" y="300" />
              <mxPoint x="410" y="90" />
            </Array>
          </mxGeometry>
        </mxCell>
        <mxCell id="Z-sHhtnvJCwgNHKxv5Uj-8" value="" style="edgeStyle=orthogonalEdgeStyle;rounded=0;orthogonalLoop=1;jettySize=auto;html=1;" edge="1" parent="1" source="Z-sHhtnvJCwgNHKxv5Uj-4" target="Z-sHhtnvJCwgNHKxv5Uj-7">
          <mxGeometry relative="1" as="geometry" />
        </mxCell>
        <mxCell id="Z-sHhtnvJCwgNHKxv5Uj-4" value="Введены корректные данные" style="rhombus;whiteSpace=wrap;html=1;rounded=0;" vertex="1" parent="1">
          <mxGeometry x="240" y="260" width="80" height="80" as="geometry" />
        </mxCell>
        <mxCell id="Z-sHhtnvJCwgNHKxv5Uj-14" value="" style="edgeStyle=orthogonalEdgeStyle;rounded=0;orthogonalLoop=1;jettySize=auto;html=1;exitX=0.5;exitY=1;exitDx=0;exitDy=0;" edge="1" parent="1" source="Z-sHhtnvJCwgNHKxv5Uj-7" target="Z-sHhtnvJCwgNHKxv5Uj-13">
          <mxGeometry relative="1" as="geometry" />
        </mxCell>
        <mxCell id="Z-sHhtnvJCwgNHKxv5Uj-18" value="" style="edgeStyle=orthogonalEdgeStyle;rounded=0;orthogonalLoop=1;jettySize=auto;html=1;" edge="1" parent="1" source="Z-sHhtnvJCwgNHKxv5Uj-7" target="Z-sHhtnvJCwgNHKxv5Uj-17">
          <mxGeometry relative="1" as="geometry">
            <Array as="points">
              <mxPoint x="280" y="525" />
              <mxPoint x="550" y="525" />
              <mxPoint x="550" y="600" />
            </Array>
          </mxGeometry>
        </mxCell>
        <mxCell id="Z-sHhtnvJCwgNHKxv5Uj-20" value="" style="edgeStyle=orthogonalEdgeStyle;rounded=0;orthogonalLoop=1;jettySize=auto;html=1;entryX=0;entryY=0.5;entryDx=0;entryDy=0;" edge="1" parent="1">
          <mxGeometry relative="1" as="geometry">
            <mxPoint x="279.99999999999994" y="485" as="sourcePoint" />
            <mxPoint x="590" y="855" as="targetPoint" />
            <Array as="points">
              <mxPoint x="280" y="525" />
              <mxPoint x="370" y="525" />
              <mxPoint x="370" y="855" />
            </Array>
          </mxGeometry>
        </mxCell>
        <mxCell id="Z-sHhtnvJCwgNHKxv5Uj-7" value="Выбор действия" style="rhombus;whiteSpace=wrap;html=1;rounded=0;" vertex="1" parent="1">
          <mxGeometry x="240" y="410" width="80" height="80" as="geometry" />
        </mxCell>
        <mxCell id="Z-sHhtnvJCwgNHKxv5Uj-9" value="нет" style="text;html=1;align=center;verticalAlign=middle;resizable=0;points=[];autosize=1;strokeColor=none;fillColor=none;" vertex="1" parent="1">
          <mxGeometry x="330" y="270" width="30" height="20" as="geometry" />
        </mxCell>
        <mxCell id="Z-sHhtnvJCwgNHKxv5Uj-10" value="да" style="text;html=1;align=center;verticalAlign=middle;resizable=0;points=[];autosize=1;strokeColor=none;fillColor=none;" vertex="1" parent="1">
          <mxGeometry x="225" y="340" width="30" height="20" as="geometry" />
        </mxCell>
        <mxCell id="Z-sHhtnvJCwgNHKxv5Uj-50" style="edgeStyle=orthogonalEdgeStyle;rounded=0;orthogonalLoop=1;jettySize=auto;html=1;entryX=0.5;entryY=0;entryDx=0;entryDy=0;" edge="1" parent="1" source="Z-sHhtnvJCwgNHKxv5Uj-13" target="Z-sHhtnvJCwgNHKxv5Uj-7">
          <mxGeometry relative="1" as="geometry">
            <mxPoint x="280" y="400" as="targetPoint" />
            <Array as="points">
              <mxPoint x="60" y="605" />
              <mxPoint x="60" y="370" />
              <mxPoint x="280" y="370" />
            </Array>
          </mxGeometry>
        </mxCell>
        <mxCell id="Z-sHhtnvJCwgNHKxv5Uj-53" style="edgeStyle=orthogonalEdgeStyle;rounded=0;orthogonalLoop=1;jettySize=auto;html=1;entryX=0.5;entryY=0;entryDx=0;entryDy=0;exitX=1;exitY=0.5;exitDx=0;exitDy=0;" edge="1" parent="1" source="Z-sHhtnvJCwgNHKxv5Uj-13" target="Z-sHhtnvJCwgNHKxv5Uj-59">
          <mxGeometry relative="1" as="geometry">
            <mxPoint x="290" y="750" as="targetPoint" />
          </mxGeometry>
        </mxCell>
        <mxCell id="Z-sHhtnvJCwgNHKxv5Uj-13" value="Наличие прав администратора&lt;br&gt;или преподователя&amp;nbsp;" style="rhombus;whiteSpace=wrap;html=1;rounded=0;" vertex="1" parent="1">
          <mxGeometry x="90" y="560" width="150" height="90" as="geometry" />
        </mxCell>
        <mxCell id="Z-sHhtnvJCwgNHKxv5Uj-15" value="&lt;span&gt;Панель администратора&lt;/span&gt;" style="text;html=1;align=center;verticalAlign=middle;resizable=0;points=[];autosize=1;strokeColor=none;fillColor=none;" vertex="1" parent="1">
          <mxGeometry x="115" y="500" width="150" height="20" as="geometry" />
        </mxCell>
        <mxCell id="Z-sHhtnvJCwgNHKxv5Uj-16" value="&lt;span&gt;Панель пользователя&lt;br&gt;&lt;/span&gt;" style="text;html=1;align=center;verticalAlign=middle;resizable=0;points=[];autosize=1;strokeColor=none;fillColor=none;" vertex="1" parent="1">
          <mxGeometry x="320" y="480" width="140" height="20" as="geometry" />
        </mxCell>
        <mxCell id="Z-sHhtnvJCwgNHKxv5Uj-22" value="" style="edgeStyle=orthogonalEdgeStyle;rounded=0;orthogonalLoop=1;jettySize=auto;html=1;entryX=0.5;entryY=0;entryDx=0;entryDy=0;" edge="1" parent="1" source="Z-sHhtnvJCwgNHKxv5Uj-17" target="Z-sHhtnvJCwgNHKxv5Uj-21">
          <mxGeometry relative="1" as="geometry">
            <Array as="points">
              <mxPoint x="550" y="650" />
              <mxPoint x="465" y="650" />
            </Array>
          </mxGeometry>
        </mxCell>
        <mxCell id="Z-sHhtnvJCwgNHKxv5Uj-24" value="" style="edgeStyle=orthogonalEdgeStyle;rounded=0;orthogonalLoop=1;jettySize=auto;html=1;entryX=0.5;entryY=0;entryDx=0;entryDy=0;" edge="1" parent="1" source="Z-sHhtnvJCwgNHKxv5Uj-17" target="Z-sHhtnvJCwgNHKxv5Uj-23">
          <mxGeometry relative="1" as="geometry">
            <Array as="points">
              <mxPoint x="550" y="650" />
              <mxPoint x="1125" y="650" />
            </Array>
          </mxGeometry>
        </mxCell>
        <mxCell id="Z-sHhtnvJCwgNHKxv5Uj-32" style="edgeStyle=orthogonalEdgeStyle;rounded=0;orthogonalLoop=1;jettySize=auto;html=1;entryX=0.5;entryY=0;entryDx=0;entryDy=0;" edge="1" parent="1" source="Z-sHhtnvJCwgNHKxv5Uj-17" target="Z-sHhtnvJCwgNHKxv5Uj-29">
          <mxGeometry relative="1" as="geometry">
            <mxPoint x="610" y="670" as="targetPoint" />
            <Array as="points">
              <mxPoint x="550" y="650" />
              <mxPoint x="625" y="650" />
            </Array>
          </mxGeometry>
        </mxCell>
        <mxCell id="Z-sHhtnvJCwgNHKxv5Uj-34" style="edgeStyle=orthogonalEdgeStyle;rounded=0;orthogonalLoop=1;jettySize=auto;html=1;entryX=0.5;entryY=0;entryDx=0;entryDy=0;" edge="1" parent="1" source="Z-sHhtnvJCwgNHKxv5Uj-17" target="Z-sHhtnvJCwgNHKxv5Uj-33">
          <mxGeometry relative="1" as="geometry">
            <mxPoint x="910" y="670" as="targetPoint" />
            <Array as="points">
              <mxPoint x="550" y="650" />
              <mxPoint x="945" y="650" />
            </Array>
          </mxGeometry>
        </mxCell>
        <mxCell id="Z-sHhtnvJCwgNHKxv5Uj-35" style="edgeStyle=orthogonalEdgeStyle;rounded=0;orthogonalLoop=1;jettySize=auto;html=1;entryX=0.5;entryY=0;entryDx=0;entryDy=0;" edge="1" parent="1" source="Z-sHhtnvJCwgNHKxv5Uj-17" target="Z-sHhtnvJCwgNHKxv5Uj-30">
          <mxGeometry relative="1" as="geometry">
            <mxPoint x="790" y="670" as="targetPoint" />
            <Array as="points">
              <mxPoint x="550" y="650" />
              <mxPoint x="785" y="650" />
            </Array>
          </mxGeometry>
        </mxCell>
        <mxCell id="Z-sHhtnvJCwgNHKxv5Uj-17" value="Выбор действия" style="rhombus;whiteSpace=wrap;html=1;rounded=0;" vertex="1" parent="1">
          <mxGeometry x="510" y="550" width="80" height="80" as="geometry" />
        </mxCell>
        <mxCell id="Z-sHhtnvJCwgNHKxv5Uj-45" value="" style="edgeStyle=orthogonalEdgeStyle;rounded=0;orthogonalLoop=1;jettySize=auto;html=1;" edge="1" parent="1" source="Z-sHhtnvJCwgNHKxv5Uj-19" target="Z-sHhtnvJCwgNHKxv5Uj-44">
          <mxGeometry relative="1" as="geometry" />
        </mxCell>
        <mxCell id="Z-sHhtnvJCwgNHKxv5Uj-19" value="Конец&lt;br&gt;работы" style="rhombus;whiteSpace=wrap;html=1;rounded=0;" vertex="1" parent="1">
          <mxGeometry x="590" y="820" width="80" height="80" as="geometry" />
        </mxCell>
        <mxCell id="Z-sHhtnvJCwgNHKxv5Uj-40" style="edgeStyle=orthogonalEdgeStyle;rounded=0;orthogonalLoop=1;jettySize=auto;html=1;exitX=0.5;exitY=1;exitDx=0;exitDy=0;" edge="1" parent="1" source="Z-sHhtnvJCwgNHKxv5Uj-21" target="Z-sHhtnvJCwgNHKxv5Uj-19">
          <mxGeometry relative="1" as="geometry">
            <Array as="points">
              <mxPoint x="465" y="800" />
              <mxPoint x="630" y="800" />
            </Array>
          </mxGeometry>
        </mxCell>
        <mxCell id="Z-sHhtnvJCwgNHKxv5Uj-21" value="Вывод информации курсов и их форм" style="shape=parallelogram;perimeter=parallelogramPerimeter;whiteSpace=wrap;html=1;fixedSize=1;" vertex="1" parent="1">
          <mxGeometry x="390" y="690" width="150" height="80" as="geometry" />
        </mxCell>
        <mxCell id="Z-sHhtnvJCwgNHKxv5Uj-23" value="Нажать кнопку назад" style="whiteSpace=wrap;html=1;rounded=0;" vertex="1" parent="1">
          <mxGeometry x="1050" y="690" width="150" height="80" as="geometry" />
        </mxCell>
        <mxCell id="Z-sHhtnvJCwgNHKxv5Uj-25" value="Назад" style="text;html=1;align=center;verticalAlign=middle;resizable=0;points=[];autosize=1;strokeColor=none;fillColor=none;" vertex="1" parent="1">
          <mxGeometry x="1130" y="650" width="50" height="20" as="geometry" />
        </mxCell>
        <mxCell id="Z-sHhtnvJCwgNHKxv5Uj-26" value="Курсы" style="text;html=1;align=center;verticalAlign=middle;resizable=0;points=[];autosize=1;strokeColor=none;fillColor=none;" vertex="1" parent="1">
          <mxGeometry x="470" y="650" width="50" height="20" as="geometry" />
        </mxCell>
        <mxCell id="Z-sHhtnvJCwgNHKxv5Uj-28" value="Статьи" style="text;html=1;align=center;verticalAlign=middle;resizable=0;points=[];autosize=1;strokeColor=none;fillColor=none;" vertex="1" parent="1">
          <mxGeometry x="630" y="650" width="50" height="20" as="geometry" />
        </mxCell>
        <mxCell id="Z-sHhtnvJCwgNHKxv5Uj-41" style="edgeStyle=orthogonalEdgeStyle;rounded=0;orthogonalLoop=1;jettySize=auto;html=1;entryX=0.5;entryY=0;entryDx=0;entryDy=0;exitX=0.5;exitY=1;exitDx=0;exitDy=0;" edge="1" parent="1" source="Z-sHhtnvJCwgNHKxv5Uj-29" target="Z-sHhtnvJCwgNHKxv5Uj-19">
          <mxGeometry relative="1" as="geometry">
            <Array as="points">
              <mxPoint x="625" y="800" />
              <mxPoint x="630" y="800" />
            </Array>
          </mxGeometry>
        </mxCell>
        <mxCell id="Z-sHhtnvJCwgNHKxv5Uj-29" value="Вывод статей" style="shape=parallelogram;perimeter=parallelogramPerimeter;whiteSpace=wrap;html=1;fixedSize=1;" vertex="1" parent="1">
          <mxGeometry x="550" y="690" width="150" height="80" as="geometry" />
        </mxCell>
        <mxCell id="Z-sHhtnvJCwgNHKxv5Uj-42" style="edgeStyle=orthogonalEdgeStyle;rounded=0;orthogonalLoop=1;jettySize=auto;html=1;entryX=0.5;entryY=0;entryDx=0;entryDy=0;exitX=0.5;exitY=1;exitDx=0;exitDy=0;" edge="1" parent="1" source="Z-sHhtnvJCwgNHKxv5Uj-30" target="Z-sHhtnvJCwgNHKxv5Uj-19">
          <mxGeometry relative="1" as="geometry">
            <Array as="points">
              <mxPoint x="785" y="800" />
              <mxPoint x="630" y="800" />
            </Array>
          </mxGeometry>
        </mxCell>
        <mxCell id="Z-sHhtnvJCwgNHKxv5Uj-30" value="Вывод&lt;br&gt;информации о преподователях" style="shape=parallelogram;perimeter=parallelogramPerimeter;whiteSpace=wrap;html=1;fixedSize=1;" vertex="1" parent="1">
          <mxGeometry x="710" y="690" width="150" height="80" as="geometry" />
        </mxCell>
        <mxCell id="Z-sHhtnvJCwgNHKxv5Uj-43" style="edgeStyle=orthogonalEdgeStyle;rounded=0;orthogonalLoop=1;jettySize=auto;html=1;exitX=0.5;exitY=1;exitDx=0;exitDy=0;" edge="1" parent="1" source="Z-sHhtnvJCwgNHKxv5Uj-33" target="Z-sHhtnvJCwgNHKxv5Uj-19">
          <mxGeometry relative="1" as="geometry">
            <Array as="points">
              <mxPoint x="945" y="800" />
              <mxPoint x="630" y="800" />
            </Array>
          </mxGeometry>
        </mxCell>
        <mxCell id="Z-sHhtnvJCwgNHKxv5Uj-33" value="Вывод справочной&lt;br&gt;информации&amp;nbsp;" style="shape=parallelogram;perimeter=parallelogramPerimeter;whiteSpace=wrap;html=1;fixedSize=1;" vertex="1" parent="1">
          <mxGeometry x="870" y="690" width="150" height="80" as="geometry" />
        </mxCell>
        <mxCell id="Z-sHhtnvJCwgNHKxv5Uj-36" value="Преподователи" style="text;html=1;align=center;verticalAlign=middle;resizable=0;points=[];autosize=1;strokeColor=none;fillColor=none;" vertex="1" parent="1">
          <mxGeometry x="790" y="650" width="100" height="20" as="geometry" />
        </mxCell>
        <mxCell id="Z-sHhtnvJCwgNHKxv5Uj-37" value="Информация о приложении" style="text;html=1;align=center;verticalAlign=middle;resizable=0;points=[];autosize=1;strokeColor=none;fillColor=none;" vertex="1" parent="1">
          <mxGeometry x="950" y="650" width="170" height="20" as="geometry" />
        </mxCell>
        <mxCell id="Z-sHhtnvJCwgNHKxv5Uj-38" value="Нет" style="text;html=1;align=center;verticalAlign=middle;resizable=0;points=[];autosize=1;strokeColor=none;fillColor=none;" vertex="1" parent="1">
          <mxGeometry x="550" y="820" width="40" height="20" as="geometry" />
        </mxCell>
        <mxCell id="Z-sHhtnvJCwgNHKxv5Uj-39" value="Да" style="text;html=1;align=center;verticalAlign=middle;resizable=0;points=[];autosize=1;strokeColor=none;fillColor=none;" vertex="1" parent="1">
          <mxGeometry x="665" y="820" width="30" height="20" as="geometry" />
        </mxCell>
        <mxCell id="Z-sHhtnvJCwgNHKxv5Uj-44" value="1" style="ellipse;whiteSpace=wrap;html=1;aspect=fixed;" vertex="1" parent="1">
          <mxGeometry x="730" y="820" width="80" height="80" as="geometry" />
        </mxCell>
        <mxCell id="Z-sHhtnvJCwgNHKxv5Uj-48" value="Нет" style="text;html=1;align=center;verticalAlign=middle;resizable=0;points=[];autosize=1;strokeColor=none;fillColor=none;" vertex="1" parent="1">
          <mxGeometry x="50" y="570" width="40" height="20" as="geometry" />
        </mxCell>
        <mxCell id="Z-sHhtnvJCwgNHKxv5Uj-49" value="Да" style="text;html=1;align=center;verticalAlign=middle;resizable=0;points=[];autosize=1;strokeColor=none;fillColor=none;" vertex="1" parent="1">
          <mxGeometry x="225" y="570" width="30" height="20" as="geometry" />
        </mxCell>
        <mxCell id="Z-sHhtnvJCwgNHKxv5Uj-52" value="" style="edgeStyle=orthogonalEdgeStyle;rounded=0;orthogonalLoop=1;jettySize=auto;html=1;entryX=0;entryY=0.5;entryDx=0;entryDy=0;" edge="1" parent="1">
          <mxGeometry relative="1" as="geometry">
            <mxPoint x="280" y="490" as="sourcePoint" />
            <mxPoint x="590" y="855" as="targetPoint" />
            <Array as="points">
              <mxPoint x="280" y="525" />
              <mxPoint x="370" y="525" />
              <mxPoint x="370" y="855" />
            </Array>
          </mxGeometry>
        </mxCell>
        <mxCell id="Z-sHhtnvJCwgNHKxv5Uj-54" value="" style="edgeStyle=orthogonalEdgeStyle;rounded=0;orthogonalLoop=1;jettySize=auto;html=1;entryX=0.5;entryY=0;entryDx=0;entryDy=0;" edge="1" parent="1" source="Z-sHhtnvJCwgNHKxv5Uj-59" target="Z-sHhtnvJCwgNHKxv5Uj-79">
          <mxGeometry relative="1" as="geometry">
            <Array as="points">
              <mxPoint x="300" y="1030" />
              <mxPoint x="75" y="1030" />
            </Array>
            <mxPoint x="60" y="1070" as="targetPoint" />
          </mxGeometry>
        </mxCell>
        <mxCell id="Z-sHhtnvJCwgNHKxv5Uj-55" value="" style="edgeStyle=orthogonalEdgeStyle;rounded=0;orthogonalLoop=1;jettySize=auto;html=1;entryX=0.5;entryY=0;entryDx=0;entryDy=0;" edge="1" parent="1" source="Z-sHhtnvJCwgNHKxv5Uj-59" target="Z-sHhtnvJCwgNHKxv5Uj-64">
          <mxGeometry relative="1" as="geometry">
            <Array as="points">
              <mxPoint x="300" y="1030" />
              <mxPoint x="975" y="1030" />
            </Array>
            <mxPoint x="980" y="1000" as="targetPoint" />
          </mxGeometry>
        </mxCell>
        <mxCell id="Z-sHhtnvJCwgNHKxv5Uj-56" style="edgeStyle=orthogonalEdgeStyle;rounded=0;orthogonalLoop=1;jettySize=auto;html=1;entryX=0.5;entryY=0;entryDx=0;entryDy=0;" edge="1" parent="1" source="Z-sHhtnvJCwgNHKxv5Uj-59" target="Z-sHhtnvJCwgNHKxv5Uj-80">
          <mxGeometry relative="1" as="geometry">
            <Array as="points">
              <mxPoint x="300" y="1030" />
              <mxPoint x="255" y="1030" />
            </Array>
            <mxPoint x="237.06999999999994" y="1070" as="targetPoint" />
          </mxGeometry>
        </mxCell>
        <mxCell id="Z-sHhtnvJCwgNHKxv5Uj-57" style="edgeStyle=orthogonalEdgeStyle;rounded=0;orthogonalLoop=1;jettySize=auto;html=1;entryX=0.5;entryY=0;entryDx=0;entryDy=0;" edge="1" parent="1" source="Z-sHhtnvJCwgNHKxv5Uj-59" target="Z-sHhtnvJCwgNHKxv5Uj-83">
          <mxGeometry relative="1" as="geometry">
            <Array as="points">
              <mxPoint x="300" y="1030" />
              <mxPoint x="615" y="1030" />
            </Array>
            <mxPoint x="518.9549999999999" y="1071.0399999999997" as="targetPoint" />
          </mxGeometry>
        </mxCell>
        <mxCell id="Z-sHhtnvJCwgNHKxv5Uj-58" style="edgeStyle=orthogonalEdgeStyle;rounded=0;orthogonalLoop=1;jettySize=auto;html=1;entryX=0.5;entryY=0;entryDx=0;entryDy=0;" edge="1" parent="1" source="Z-sHhtnvJCwgNHKxv5Uj-59" target="Z-sHhtnvJCwgNHKxv5Uj-81">
          <mxGeometry relative="1" as="geometry">
            <Array as="points">
              <mxPoint x="300" y="1030" />
              <mxPoint x="435" y="1030" />
            </Array>
            <mxPoint x="381.05500000000006" y="1071.9999999999998" as="targetPoint" />
          </mxGeometry>
        </mxCell>
        <mxCell id="Z-sHhtnvJCwgNHKxv5Uj-86" style="edgeStyle=orthogonalEdgeStyle;rounded=0;orthogonalLoop=1;jettySize=auto;html=1;entryX=0.5;entryY=0;entryDx=0;entryDy=0;" edge="1" parent="1" source="Z-sHhtnvJCwgNHKxv5Uj-59" target="Z-sHhtnvJCwgNHKxv5Uj-84">
          <mxGeometry relative="1" as="geometry">
            <Array as="points">
              <mxPoint x="300" y="1030" />
              <mxPoint x="795" y="1030" />
            </Array>
          </mxGeometry>
        </mxCell>
        <mxCell id="Z-sHhtnvJCwgNHKxv5Uj-59" value="Выбор действия" style="rhombus;whiteSpace=wrap;html=1;rounded=0;" vertex="1" parent="1">
          <mxGeometry x="260" y="890" width="80" height="80" as="geometry" />
        </mxCell>
        <mxCell id="Z-sHhtnvJCwgNHKxv5Uj-60" value="" style="edgeStyle=orthogonalEdgeStyle;rounded=0;orthogonalLoop=1;jettySize=auto;html=1;" edge="1" parent="1" source="Z-sHhtnvJCwgNHKxv5Uj-61" target="Z-sHhtnvJCwgNHKxv5Uj-78">
          <mxGeometry relative="1" as="geometry" />
        </mxCell>
        <mxCell id="Z-sHhtnvJCwgNHKxv5Uj-61" value="Конец&lt;br&gt;работы" style="rhombus;whiteSpace=wrap;html=1;rounded=0;" vertex="1" parent="1">
          <mxGeometry x="215" y="1210" width="80" height="80" as="geometry" />
        </mxCell>
        <mxCell id="Z-sHhtnvJCwgNHKxv5Uj-62" style="edgeStyle=orthogonalEdgeStyle;rounded=0;orthogonalLoop=1;jettySize=auto;html=1;exitX=0.5;exitY=1;exitDx=0;exitDy=0;entryX=0.5;entryY=0;entryDx=0;entryDy=0;" edge="1" parent="1" source="Z-sHhtnvJCwgNHKxv5Uj-79" target="Z-sHhtnvJCwgNHKxv5Uj-61">
          <mxGeometry relative="1" as="geometry">
            <Array as="points">
              <mxPoint x="75" y="1180" />
              <mxPoint x="255" y="1180" />
            </Array>
            <mxPoint x="72.51428571428573" y="1150" as="sourcePoint" />
          </mxGeometry>
        </mxCell>
        <mxCell id="Z-sHhtnvJCwgNHKxv5Uj-64" value="Нажать кнопку назад" style="whiteSpace=wrap;html=1;rounded=0;" vertex="1" parent="1">
          <mxGeometry x="900" y="1070" width="150" height="80" as="geometry" />
        </mxCell>
        <mxCell id="Z-sHhtnvJCwgNHKxv5Uj-65" value="Назад" style="text;html=1;align=center;verticalAlign=middle;resizable=0;points=[];autosize=1;strokeColor=none;fillColor=none;" vertex="1" parent="1">
          <mxGeometry x="980" y="1030" width="50" height="20" as="geometry" />
        </mxCell>
        <mxCell id="Z-sHhtnvJCwgNHKxv5Uj-66" value="Курсы&lt;br&gt;(для преподователя)" style="text;html=1;align=center;verticalAlign=middle;resizable=0;points=[];autosize=1;strokeColor=none;fillColor=none;" vertex="1" parent="1">
          <mxGeometry x="80" y="1030" width="130" height="30" as="geometry" />
        </mxCell>
        <mxCell id="Z-sHhtnvJCwgNHKxv5Uj-67" value="Статьи&lt;br&gt;(для преподователя)" style="text;html=1;align=center;verticalAlign=middle;resizable=0;points=[];autosize=1;strokeColor=none;fillColor=none;" vertex="1" parent="1">
          <mxGeometry x="260" y="1030" width="130" height="30" as="geometry" />
        </mxCell>
        <mxCell id="Z-sHhtnvJCwgNHKxv5Uj-68" style="edgeStyle=orthogonalEdgeStyle;rounded=0;orthogonalLoop=1;jettySize=auto;html=1;entryX=0.5;entryY=0;entryDx=0;entryDy=0;exitX=0.5;exitY=1;exitDx=0;exitDy=0;" edge="1" parent="1" source="Z-sHhtnvJCwgNHKxv5Uj-80" target="Z-sHhtnvJCwgNHKxv5Uj-61">
          <mxGeometry relative="1" as="geometry">
            <Array as="points">
              <mxPoint x="255" y="1200" />
              <mxPoint x="255" y="1200" />
            </Array>
            <mxPoint x="227.48571428571427" y="1150" as="sourcePoint" />
          </mxGeometry>
        </mxCell>
        <mxCell id="Z-sHhtnvJCwgNHKxv5Uj-70" style="edgeStyle=orthogonalEdgeStyle;rounded=0;orthogonalLoop=1;jettySize=auto;html=1;entryX=0.5;entryY=0;entryDx=0;entryDy=0;exitX=0.5;exitY=1;exitDx=0;exitDy=0;" edge="1" parent="1" source="Z-sHhtnvJCwgNHKxv5Uj-81" target="Z-sHhtnvJCwgNHKxv5Uj-61">
          <mxGeometry relative="1" as="geometry">
            <Array as="points">
              <mxPoint x="435" y="1180" />
              <mxPoint x="255" y="1180" />
            </Array>
            <mxPoint x="372.53846153846143" y="1149.9999999999998" as="sourcePoint" />
          </mxGeometry>
        </mxCell>
        <mxCell id="Z-sHhtnvJCwgNHKxv5Uj-72" style="edgeStyle=orthogonalEdgeStyle;rounded=0;orthogonalLoop=1;jettySize=auto;html=1;exitX=0.5;exitY=1;exitDx=0;exitDy=0;" edge="1" parent="1" source="Z-sHhtnvJCwgNHKxv5Uj-83" target="Z-sHhtnvJCwgNHKxv5Uj-61">
          <mxGeometry relative="1" as="geometry">
            <Array as="points">
              <mxPoint x="610" y="1150" />
              <mxPoint x="610" y="1180" />
              <mxPoint x="255" y="1180" />
            </Array>
            <mxPoint x="600" y="1230" as="sourcePoint" />
          </mxGeometry>
        </mxCell>
        <mxCell id="Z-sHhtnvJCwgNHKxv5Uj-74" value="Формы курсов&lt;br&gt;(для преподователя)" style="text;html=1;align=center;verticalAlign=middle;resizable=0;points=[];autosize=1;strokeColor=none;fillColor=none;" vertex="1" parent="1">
          <mxGeometry x="440" y="1030" width="130" height="30" as="geometry" />
        </mxCell>
        <mxCell id="Z-sHhtnvJCwgNHKxv5Uj-75" value="Пользователи&lt;br&gt;(для администратора)" style="text;html=1;align=center;verticalAlign=middle;resizable=0;points=[];autosize=1;strokeColor=none;fillColor=none;" vertex="1" parent="1">
          <mxGeometry x="620" y="1030" width="140" height="30" as="geometry" />
        </mxCell>
        <mxCell id="Z-sHhtnvJCwgNHKxv5Uj-76" value="Нет" style="text;html=1;align=center;verticalAlign=middle;resizable=0;points=[];autosize=1;strokeColor=none;fillColor=none;" vertex="1" parent="1">
          <mxGeometry x="180" y="1200" width="40" height="20" as="geometry" />
        </mxCell>
        <mxCell id="Z-sHhtnvJCwgNHKxv5Uj-77" value="Да" style="text;html=1;align=center;verticalAlign=middle;resizable=0;points=[];autosize=1;strokeColor=none;fillColor=none;" vertex="1" parent="1">
          <mxGeometry x="270" y="1200" width="30" height="20" as="geometry" />
        </mxCell>
        <mxCell id="Z-sHhtnvJCwgNHKxv5Uj-78" value="1" style="ellipse;whiteSpace=wrap;html=1;aspect=fixed;" vertex="1" parent="1">
          <mxGeometry x="360" y="1210" width="80" height="80" as="geometry" />
        </mxCell>
        <mxCell id="Z-sHhtnvJCwgNHKxv5Uj-79" value="Добавление, изменение или удаление курсов" style="rounded=0;whiteSpace=wrap;html=1;" vertex="1" parent="1">
          <mxGeometry y="1070" width="150" height="80" as="geometry" />
        </mxCell>
        <mxCell id="Z-sHhtnvJCwgNHKxv5Uj-80" value="Добавление, изменение или удаление статей" style="rounded=0;whiteSpace=wrap;html=1;" vertex="1" parent="1">
          <mxGeometry x="180" y="1070" width="150" height="80" as="geometry" />
        </mxCell>
        <mxCell id="Z-sHhtnvJCwgNHKxv5Uj-81" value="Добавление, изменение или удаление форм курсов" style="rounded=0;whiteSpace=wrap;html=1;" vertex="1" parent="1">
          <mxGeometry x="360" y="1070" width="150" height="80" as="geometry" />
        </mxCell>
        <mxCell id="Z-sHhtnvJCwgNHKxv5Uj-83" value="Добавление, изменение или удаление пользователей" style="rounded=0;whiteSpace=wrap;html=1;" vertex="1" parent="1">
          <mxGeometry x="540" y="1070" width="150" height="80" as="geometry" />
        </mxCell>
        <mxCell id="Z-sHhtnvJCwgNHKxv5Uj-88" style="edgeStyle=orthogonalEdgeStyle;rounded=0;orthogonalLoop=1;jettySize=auto;html=1;entryX=0.5;entryY=0;entryDx=0;entryDy=0;exitX=0.5;exitY=1;exitDx=0;exitDy=0;" edge="1" parent="1" source="Z-sHhtnvJCwgNHKxv5Uj-84" target="Z-sHhtnvJCwgNHKxv5Uj-61">
          <mxGeometry relative="1" as="geometry">
            <Array as="points">
              <mxPoint x="795" y="1180" />
              <mxPoint x="255" y="1180" />
            </Array>
          </mxGeometry>
        </mxCell>
        <mxCell id="Z-sHhtnvJCwgNHKxv5Uj-84" value="Добавление, изменение или удаление ролей" style="rounded=0;whiteSpace=wrap;html=1;" vertex="1" parent="1">
          <mxGeometry x="720" y="1070" width="150" height="80" as="geometry" />
        </mxCell>
        <mxCell id="Z-sHhtnvJCwgNHKxv5Uj-85" value="Роли&lt;br&gt;(для администратора)" style="text;html=1;align=center;verticalAlign=middle;resizable=0;points=[];autosize=1;strokeColor=none;fillColor=none;" vertex="1" parent="1">
          <mxGeometry x="800" y="1030" width="140" height="30" as="geometry" />
        </mxCell>
      </root>
    </mxGraphModel>
  </diagram>
</mxfile>
